# 5 cm cube exported in millimeters and scaled to meters in model.sdf.
mtllib steel_cube_5cm.mtl
o steel_cube_5cm
v -25.000000 25.000000 0.000000
v 25.000000 25.000000 0.000000
v -25.000000 25.000000 -50.000000
v 25.000000 25.000000 -50.000000
v -25.000000 -25.000000 0.000000
v -25.000000 -25.000000 -50.000000
v 25.000000 -25.000000 0.000000
v 25.000000 -25.000000 -50.000000
vn -0.0000 1.0000 -0.0000
vn -1.0000 -0.0000 -0.0000
vn -0.0000 -1.0000 -0.0000
vn 1.0000 -0.0000 -0.0000
vn -0.0000 -0.0000 -1.0000
vn -0.0000 -0.0000 1.0000
vt 0.249044 0.056189
vt 0.740457 0.056189
vt 0.249044 0.929812
vt 0.740457 0.929812
s 0
usemtl Steel
f 1/1/1 2/2/1 3/3/1
f 3/3/1 2/2/1 4/4/1
f 5/1/2 1/3/2 6/2/2
f 6/2/2 1/3/2 3/4/2
f 7/2/3 5/1/3 8/4/3
f 8/4/3 5/1/3 6/3/3
f 2/3/4 7/1/4 4/4/4
f 4/4/4 7/1/4 8/2/4
f 4/4/5 8/2/5 3/3/5
f 3/3/5 8/2/5 6/1/5
f 7/2/6 2/4/6 5/1/6
f 5/1/6 2/4/6 1/3/6
